<svg xmlns="http://www.w3.org/2000/svg" xmlns:xlink="http://www.w3.org/1999/xlink" viewBox="0 0 354.18 443.37"><defs><style>.cls-1{fill:none;}.cls-2{fill:url(#未命名的渐变_29);}.cls-3{clip-path:url(#clip-path);}.cls-4,.cls-5{opacity:0.3;}.cls-4{fill:url(#未命名的渐变_29-2);}.cls-5{fill:url(#未命名的渐变_29-3);}.cls-6{fill:#fff;}.cls-7{opacity:0.5;}.cls-8{fill:url(#未命名的渐变_29-4);}</style><linearGradient id="未命名的渐变_29" x1="124.18" y1="237.3" x2="354.18" y2="237.3" gradientUnits="userSpaceOnUse"><stop offset="0" stop-color="#4da4ff" stop-opacity="0.7"/><stop offset="1" stop-color="#8e79ff" stop-opacity="0.7"/></linearGradient><clipPath id="clip-path"><rect class="cls-1" x="124.18" y="147.3" width="230" height="180"/></clipPath><linearGradient id="未命名的渐变_29-2" x1="0" y1="133.37" x2="266.74" y2="133.37" xlink:href="#未命名的渐变_29"/><linearGradient id="未命名的渐变_29-3" x1="190.74" y1="367.37" x2="342.74" y2="367.37" xlink:href="#未命名的渐变_29"/><linearGradient id="未命名的渐变_29-4" x1="229.65" y1="215.74" x2="253.43" y2="215.74" xlink:href="#未命名的渐变_29"/></defs><title>bangzhuzhongxin</title><g id="图层_2" data-name="图层 2"><g id="图层_1-2" data-name="图层 1"><rect class="cls-2" x="124.18" y="147.3" width="230" height="180"/><g class="cls-3"><circle class="cls-4" cx="133.37" cy="133.37" r="133.37"/><circle class="cls-5" cx="266.74" cy="367.37" r="76"/></g><path class="cls-6" d="M240.82,179.75a33.56,33.56,0,0,0-.58,67.12l.22,12.67s13.5-7.5,26-24.63h0a33.57,33.57,0,0,0-25.7-55.15Zm3.58,54.61h-8.26v-8.08h8.26Zm2.72-18.87c-2.47,1.66-3.55,3.48-3.31,5.59v2.18h-7.08v-2.33c-.14-4.18,1.84-7.79,5.89-10.71,3.34-2.3,4.85-4.78,4.49-7.39-.36-3-2.07-4.56-5.22-4.81-.21,0-.43,0-.65,0-4,0-6.4,2.25-7.23,6.87l-.1.58-7-2.35.09-.45c1.75-8,6.92-12,15.39-11.7,7.57.42,11.75,4.44,12.43,12v0c.13,4.6-2.44,8.82-7.65,12.54Z"/><g class="cls-7"><path class="cls-6" d="M237.52,182.53a33.56,33.56,0,0,0-.57,67.12l.21,12.67s13.5-7.5,26.06-24.64h0a33.56,33.56,0,0,0-25.7-55.14Zm3.58,54.61h-8.25v-8.08h8.25Zm2.73-18.88c-2.48,1.66-3.56,3.49-3.32,5.59V226h-7.08v-2.32c-.13-4.18,1.85-7.79,5.89-10.71,3.34-2.3,4.85-4.79,4.49-7.39-.36-3-2.07-4.57-5.21-4.82l-.65,0c-4,0-6.41,2.25-7.23,6.87l-.1.58-7.06-2.35.1-.44c1.74-8,6.92-12,15.39-11.71,7.57.42,11.75,4.45,12.42,12v0c.13,4.6-2.45,8.82-7.65,12.54Z"/></g><rect class="cls-6" x="221.68" y="187.91" width="38.33" height="50.65"/><path class="cls-8" d="M243.61,223v1.21h-5.17v-1.38c-.12-3.45,1.49-6.37,4.82-8.79q4.83-3.25,4.31-6.89-.52-4.12-5.17-4.47-6.19-.18-7.23,6.2l-5.52-1.55q2.25-10.17,13.27-9.65,9.65.53,10.51,9.65.16,5.69-6.55,10.5Q243.43,220.07,243.61,223Zm-5.86,4.82h6.55v6h-6.55Z"/></g></g></svg>