<svg xmlns="http://www.w3.org/2000/svg" viewBox="0 0 187.5 187.5"><defs><style>.cls-1{fill:#defcf9;}.cls-2{fill:#18dfb7;}.cls-3{fill:#7cf7da;}.cls-4{fill:#fff;}</style></defs><title>资源 1</title><g id="图层_2" data-name="图层 2"><g id="图层_1-2" data-name="图层 1"><path class="cls-1" d="M0,93.75A93.75,93.75,0,1,0,93.75,0,93.75,93.75,0,0,0,0,93.75Z"/><path class="cls-2" d="M134.11,141.7H53.39V61.14a3.73,3.73,0,0,1,1.81-3.2L90.78,36.63a5.76,5.76,0,0,1,5.94,0L132.3,57.94a3.73,3.73,0,0,1,1.81,3.2Z"/><rect class="cls-3" x="37.42" y="135.92" width="112.67" height="11.77" rx="5.88" ry="5.88"/><rect class="cls-4" x="86.92" y="59.62" width="13.66" height="13.66"/><rect class="cls-4" x="70.1" y="83.79" width="13.66" height="13.66"/><rect class="cls-4" x="70.1" y="111.12" width="13.66" height="13.66"/><rect class="cls-4" x="103.52" y="83.79" width="13.66" height="13.66"/><rect class="cls-4" x="103.52" y="111.12" width="13.66" height="13.66"/></g></g></svg>