<svg xmlns="http://www.w3.org/2000/svg" xmlns:xlink="http://www.w3.org/1999/xlink" viewBox="0 0 230 180"><defs><style>.cls-1{fill:url(#未命名的渐变_27);}.cls-2,.cls-3{fill:#fff;}.cls-2{opacity:0.5;}.cls-4{fill:url(#未命名的渐变_27-2);}</style><linearGradient id="未命名的渐变_27" y1="90" x2="230" y2="90" gradientUnits="userSpaceOnUse"><stop offset="0" stop-color="#ffa15a" stop-opacity="0.7"/><stop offset="1" stop-color="#ff5f75" stop-opacity="0.7"/></linearGradient><linearGradient id="未命名的渐变_27-2" x1="132.96" y1="106.91" x2="148.09" y2="106.91" xlink:href="#未命名的渐变_27"/></defs><title>fazhandaili</title><g id="图层_2" data-name="图层 2"><g id="图层_1-2" data-name="图层 1"><rect class="cls-1" width="230" height="180"/><circle class="cls-2" cx="112.36" cy="52.76" r="22.67"/><circle class="cls-3" cx="140.53" cy="106.91" r="15.57"/><path class="cls-2" d="M117.19,106.91a18.67,18.67,0,0,1,10.32-16.7c-4.5-6.51-1.36-10.78-9.87-10.78H105.5a24.93,24.93,0,0,0-24.93,24.93v7a8.35,8.35,0,0,0,8.35,8.36h33.33A18.62,18.62,0,0,1,117.19,106.91Z"/><circle class="cls-3" cx="117.86" cy="52.76" r="22.67"/><path class="cls-3" d="M121.84,106.91a18.69,18.69,0,0,1,18.69-18.69c.56,0,1.12,0,1.67.08a24.87,24.87,0,0,0-19.06-8.87H111a24.93,24.93,0,0,0-24.93,24.93v7a8.35,8.35,0,0,0,8.35,8.36H126.9A18.62,18.62,0,0,1,121.84,106.91Z"/><polygon class="cls-4" points="148.09 105.16 142.27 105.16 142.27 99.34 138.78 99.34 138.78 105.16 132.96 105.16 132.96 108.65 138.78 108.65 138.78 114.47 142.27 114.47 142.27 108.65 148.09 108.65 148.09 105.16"/></g></g></svg>