<svg xmlns="http://www.w3.org/2000/svg" xmlns:xlink="http://www.w3.org/1999/xlink" viewBox="0 0 79.72 79.73"><defs><style>.cls-1{fill:none;}.cls-2{clip-path:url(#clip-path);}.cls-3{fill:#1296db;}</style><clipPath id="clip-path" transform="translate(0 0)"><rect class="cls-1" width="79.74" height="79.83"/></clipPath></defs><title>tab_shouye_select</title><g id="图层_2" data-name="图层 2"><g id="图层_1-2" data-name="图层 1"><g class="cls-2"><path class="cls-3" d="M44.37,1.66a6.39,6.39,0,0,0-8.59,0L1,34.65a3.2,3.2,0,0,0,4.29,4.76l.55-.53V73.31a6.42,6.42,0,0,0,6.41,6.42H30.94V60.43a4.55,4.55,0,0,1,1.32-3.19,4.48,4.48,0,0,1,3.2-1.32h8.78a4.51,4.51,0,0,1,4.51,4.51v19.3h19.1a6.42,6.42,0,0,0,6.41-6.42v-34a3.2,3.2,0,0,0,5.45-2.44,3.18,3.18,0,0,0-1-2.21l-34.29-33Z" transform="translate(0 0)"/></g></g></g></svg>