<svg xmlns="http://www.w3.org/2000/svg" xmlns:xlink="http://www.w3.org/1999/xlink" viewBox="0 0 230 180"><defs><style>.cls-1{fill:url(#未命名的渐变_31);}.cls-2{fill:#fff;}.cls-3{opacity:0.5;}</style><linearGradient id="未命名的渐变_31" y1="90" x2="230" y2="90" gradientUnits="userSpaceOnUse"><stop offset="0" stop-color="#00e5eb" stop-opacity="0.7"/><stop offset="1" stop-color="#00a5e9" stop-opacity="0.7"/></linearGradient></defs><title>tuiguangchanpin</title><g id="图层_2" data-name="图层 2"><g id="图层_1-2" data-name="图层 1"><rect class="cls-1" width="230" height="180"/><path class="cls-2" d="M112.4,48V87.17l30.2,14.72a6.47,6.47,0,0,0,9.3-5.82V39.12a6.47,6.47,0,0,0-9.3-5.82Zm-6.47,39V48.18H89.33c-10.31,0-19.31,7.76-20,18A19.4,19.4,0,0,0,87.24,86.94,2.17,2.17,0,0,1,89,88l11.48,19.87a2.15,2.15,0,0,0,1.31,1,2.11,2.11,0,0,0,1.63-.22l9.34-5.39a2.17,2.17,0,0,0,1-1.31,2.14,2.14,0,0,0-.22-1.64L105.85,87Zm46-33.84v4.91a12.93,12.93,0,0,1,0,21.57v4.91a17.23,17.23,0,0,0,0-31.38Z"/><g class="cls-3"><path class="cls-2" d="M103.88,89.34V50.51H87.28c-10.31,0-19.31,7.76-20,18A19.4,19.4,0,0,0,85.19,89.27a2.17,2.17,0,0,1,1.75,1.07l11.48,19.87a2.15,2.15,0,0,0,3,.79l9.34-5.39a2.17,2.17,0,0,0,.79-3l-7.7-13.32Z"/></g></g></g></svg>