<svg xmlns="http://www.w3.org/2000/svg" viewBox="0 0 187.5 187.5"><defs><style>.cls-1{fill:#ffe8cd;}.cls-2{fill:#ffca83;}.cls-3{fill:#ff9d1c;}</style></defs><title>资源 2</title><g id="图层_2" data-name="图层 2"><g id="图层_1-2" data-name="图层 1"><path class="cls-1" d="M0,93.75A93.75,93.75,0,1,0,93.75,0,93.75,93.75,0,0,0,0,93.75Z"/><path class="cls-2" d="M125.44,140a5.38,5.38,0,0,1-5,5h-75a5.38,5.38,0,0,1-5-5v-8.75a5.38,5.38,0,0,1,5-5h75a5.38,5.38,0,0,1,5,5Zm0-27.5a5.38,5.38,0,0,1-5,5h-75a5.38,5.38,0,0,1-5-5v-8.75a5.38,5.38,0,0,1,5-5h75a5.38,5.38,0,0,1,5,5Zm-8.75-28.75a5.38,5.38,0,0,1-5,5h-75a5.38,5.38,0,0,1-5-5V75a5.38,5.38,0,0,1,5-5h75a5.38,5.38,0,0,1,5,5Zm18.75-27.5a5.38,5.38,0,0,1-5,5h-75a5.38,5.38,0,0,1-5-5V47.5a5.38,5.38,0,0,1,5-5h75c2.5,0,5,1.25,5,5Z"/><path class="cls-3" d="M59.37,101.21a42.5,42.5,0,0,0,85,0v0h0a42.5,42.5,0,0,0-85,0Z"/><path class="cls-2" d="M70.43,101.21a31.44,31.44,0,1,0,62.87,1.12c0-.37,0-.75,0-1.12h0a31.44,31.44,0,1,0-62.87-1.12C70.42,100.46,70.42,100.84,70.43,101.21Z"/><rect class="cls-3" x="132.3" y="122.14" width="11.53" height="30.39" transform="translate(-56.51 145.12) rotate(-47.14)"/></g></g></svg>