<svg xmlns="http://www.w3.org/2000/svg" viewBox="0 0 79.72 79.73"><defs><style>.cls-1{fill:#c1c1c1;}</style></defs><title>tab_shouye_default</title><g id="图层_2" data-name="图层 2"><g id="图层_1-2" data-name="图层 1"><path class="cls-1" d="M44.37,1.66a6.39,6.39,0,0,0-8.59,0L1,34.65a3.2,3.2,0,0,0,4.29,4.76l.55-.53V73.31a6.42,6.42,0,0,0,6.41,6.42H30.94V60.43a4.52,4.52,0,0,1,4.52-4.52h8.78a4.52,4.52,0,0,1,4.51,4.52v19.3h19.1a6.42,6.42,0,0,0,6.41-6.42v-34a3.2,3.2,0,0,0,5.45-2.44,3.18,3.18,0,0,0-1-2.21l-34.29-33Z"/></g></g></svg>