<svg xmlns="http://www.w3.org/2000/svg" xmlns:xlink="http://www.w3.org/1999/xlink" viewBox="0 0 352.7 219.75"><defs><style>.cls-1{fill:none;}.cls-2{fill:url(#未命名的渐变_31);}.cls-3{clip-path:url(#clip-path);}.cls-4,.cls-5{opacity:0.3;}.cls-4{fill:url(#未命名的渐变_31-2);}.cls-5{fill:url(#未命名的渐变_31-3);}.cls-6,.cls-7{fill:#fff;}.cls-6{opacity:0.5;}</style><linearGradient id="未命名的渐变_31" x1="48.14" y1="90" x2="278.14" y2="90" gradientUnits="userSpaceOnUse"><stop offset="0" stop-color="#00e5eb" stop-opacity="0.7"/><stop offset="1" stop-color="#00a5e9" stop-opacity="0.7"/></linearGradient><clipPath id="clip-path"><rect class="cls-1" x="48.14" width="230" height="180"/></clipPath><linearGradient id="未命名的渐变_31-2" x1="236.7" y1="97.45" x2="352.7" y2="97.45" xlink:href="#未命名的渐变_31"/><linearGradient id="未命名的渐变_31-3" x1="0" y1="148" x2="143.49" y2="148" xlink:href="#未命名的渐变_31"/></defs><title>wodekehu</title><g id="图层_2" data-name="图层 2"><g id="图层_1-2" data-name="图层 1"><rect class="cls-2" x="48.14" width="230" height="180"/><g class="cls-3"><circle class="cls-4" cx="294.7" cy="97.45" r="58"/><circle class="cls-5" cx="71.75" cy="148" r="71.75"/></g><circle class="cls-6" cx="157.9" cy="53.31" r="22.67"/><path class="cls-6" d="M151,80h12.14A24.93,24.93,0,0,1,188.1,104.9v7a8.36,8.36,0,0,1-8.36,8.36H134.46a8.36,8.36,0,0,1-8.36-8.36v-7A24.93,24.93,0,0,1,151,80Z"/><path class="cls-7" d="M156.53,80h12.14A24.93,24.93,0,0,1,193.6,104.9v7a8.36,8.36,0,0,1-8.36,8.36H140a8.36,8.36,0,0,1-8.36-8.36v-7A24.93,24.93,0,0,1,156.53,80Z"/><circle class="cls-7" cx="163.4" cy="53.31" r="22.67"/></g></g></svg>