<svg xmlns="http://www.w3.org/2000/svg" xmlns:xlink="http://www.w3.org/1999/xlink" viewBox="0 0 354.18 443.37"><defs><style>.cls-1{fill:none;}.cls-2{fill:url(#未命名的渐变_29);}.cls-3{clip-path:url(#clip-path);}.cls-4,.cls-5{opacity:0.3;}.cls-4{fill:url(#未命名的渐变_29-2);}.cls-5{fill:url(#未命名的渐变_29-3);}.cls-6,.cls-7{fill:#fff;}.cls-6{opacity:0.5;}.cls-8{fill:url(#未命名的渐变_29-4);}</style><linearGradient id="未命名的渐变_29" x1="124.18" y1="237.3" x2="354.18" y2="237.3" gradientUnits="userSpaceOnUse"><stop offset="0" stop-color="#4da4ff" stop-opacity="0.7"/><stop offset="1" stop-color="#8e79ff" stop-opacity="0.7"/></linearGradient><clipPath id="clip-path"><rect class="cls-1" x="124.18" y="147.3" width="230" height="180"/></clipPath><linearGradient id="未命名的渐变_29-2" x1="0" y1="133.37" x2="266.74" y2="133.37" xlink:href="#未命名的渐变_29"/><linearGradient id="未命名的渐变_29-3" x1="190.74" y1="367.37" x2="342.74" y2="367.37" xlink:href="#未命名的渐变_29"/><linearGradient id="未命名的渐变_29-4" x1="254.98" y1="254.21" x2="272.82" y2="254.21" xlink:href="#未命名的渐变_29"/></defs><title>yiyaodaili</title><g id="图层_2" data-name="图层 2"><g id="图层_1-2" data-name="图层 1"><rect class="cls-2" x="124.18" y="147.3" width="230" height="180"/><g class="cls-3"><circle class="cls-4" cx="133.37" cy="133.37" r="133.37"/><circle class="cls-5" cx="266.74" cy="367.37" r="76"/></g><circle class="cls-6" cx="234.06" cy="200.06" r="22.67"/><circle class="cls-7" cx="262.23" cy="254.21" r="15.57"/><path class="cls-6" d="M235.84,254.21a18.66,18.66,0,0,1,10.32-16.7c-4.5-6.51,1.69-10.78-6.82-10.78H227.2a24.93,24.93,0,0,0-24.93,24.93v7a8.36,8.36,0,0,0,8.35,8.36H240.9A18.62,18.62,0,0,1,235.84,254.21Z"/><circle class="cls-7" cx="239.56" cy="200.06" r="22.67"/><path class="cls-7" d="M243.54,254.21a18.69,18.69,0,0,1,18.69-18.69c.56,0,1.12,0,1.67.08a24.87,24.87,0,0,0-19.06-8.87H232.7a24.93,24.93,0,0,0-24.93,24.93v7a8.36,8.36,0,0,0,8.35,8.36H248.6A18.62,18.62,0,0,1,243.54,254.21Z"/><polygon class="cls-8" points="272.82 250.09 270.36 247.62 262.11 255.87 257.45 251.21 254.98 253.68 262.1 260.79 262.11 260.78 262.12 260.79 272.82 250.09"/></g></g></svg>