<svg xmlns="http://www.w3.org/2000/svg" xmlns:xlink="http://www.w3.org/1999/xlink" viewBox="0 0 230 180"><defs><style>.cls-1{fill:url(#未命名的渐变_27);}.cls-2{fill:#fff;}.cls-3{opacity:0.5;}</style><linearGradient id="未命名的渐变_27" y1="90" x2="230" y2="90" gradientUnits="userSpaceOnUse"><stop offset="0" stop-color="#ffa15a" stop-opacity="0.7"/><stop offset="1" stop-color="#ff5f75" stop-opacity="0.7"/></linearGradient></defs><title>zhidaiketang</title><g id="图层_2" data-name="图层 2"><g id="图层_1-2" data-name="图层 1"><rect class="cls-1" width="230" height="180"/><path class="cls-2" d="M137.84,103.06H97.09a2.06,2.06,0,0,1,0-4.12h40.67a2,2,0,0,1,2.06,2.06,2.08,2.08,0,0,1-2,2.06ZM146,42.13a2,2,0,0,0-2.06,2.06v61a2,2,0,0,1-2,2.06H97.09a6.1,6.1,0,0,1,0-12.19h36.64A6.13,6.13,0,0,0,139.82,89V40.07A6.13,6.13,0,0,0,133.73,34H93.1A6.11,6.11,0,0,0,87,40.07v61a10.23,10.23,0,0,0,10.21,10.21H142a6.13,6.13,0,0,0,6.09-6.09V44.11a2.28,2.28,0,0,0-2.14-2Z"/><g class="cls-3"><path class="cls-2" d="M117.55,107.26h-25a6.1,6.1,0,0,1,0-12.19h25V34h-29a6.1,6.1,0,0,0-6.09,6.09v61a10.23,10.23,0,0,0,10.21,10.21h24.9Z"/></g></g></g></svg>