<?xml version="1.0" encoding="utf-8"?>
<!-- Generator: Adobe Illustrator 22.0.0, SVG Export Plug-In . SVG Version: 6.00 Build 0)  -->
<svg version="1.1" id="图层_1" xmlns="http://www.w3.org/2000/svg" xmlns:xlink="http://www.w3.org/1999/xlink" x="0px" y="0px"
	 viewBox="0 0 200 200" style="enable-background:new 0 0 200 200;" xml:space="preserve">
<style type="text/css">
	.st0{fill:#E9E8FF;}
	.st1{fill:#C6C9FF;}
	.st2{fill:#8880FE;}
</style>
<path class="st0" d="M6.3,100c0,51.8,42,93.8,93.8,93.8s93.8-42,93.8-93.8S151.8,6.3,100,6.3S6.3,48.2,6.3,100z"/>
<path class="st1" d="M91.3,65l45-16.3L145,65H91.3z M75,65l18.8-16.3l7.5,10L88.8,65H75z"/>
<path class="st2" d="M58.7,147.5c-5,0-10-5-10-10V75c0-5,5-10,10-10h83.8c5,0,10,5,10,10v61.3c0,5-5,10-10,10L58.7,147.5z"/>
<path class="st1" d="M148.8,118.8h-11.3c-5,0-10-3.8-10-10V105c0-5,5-10,10-10h11.3c5,0,10,3.8,10,10v5
	C158.8,115,155,118.7,148.8,118.8L148.8,118.8z"/>
</svg>
