<svg id="图层_1" data-name="图层 1" xmlns="http://www.w3.org/2000/svg" viewBox="0 0 187.5 187.5"><defs><style>.cls-1{fill:#fee8eb;}.cls-2{fill:#ff6b6a;}.cls-3{font-size:51.14px;fill:#fff;font-family:MicrosoftYaHei-Bold, Microsoft YaHei;font-weight:700;}</style></defs><title>baoxian</title><g id="baoxian"><path class="cls-1" d="M6.25,100A93.75,93.75,0,1,0,100,6.25,93.75,93.75,0,0,0,6.25,100Z" transform="translate(-6.25 -6.25)"/><path class="cls-2" d="M129.38,144.17l-26.91,18.08a4.44,4.44,0,0,1-4.94,0L70.62,144.17A41.15,41.15,0,0,1,52.41,110V53.57h.11c15.08,0,29.65-1,41-10.9L100,37l8.81,7.22c10.94,9,24.64,9.35,38.78,9.35h0V110A41.15,41.15,0,0,1,129.38,144.17Z" transform="translate(-6.25 -6.25)"/><text class="cls-3" transform="translate(68.18 109.06)">保</text></g></svg>