<svg xmlns="http://www.w3.org/2000/svg" viewBox="0 0 78.27 78.25"><defs><style>.cls-1{fill:#c1c1c1;}</style></defs><title>tab_zixunzhongxin_default</title><g id="图层_2" data-name="图层 2"><g id="图层_1-2" data-name="图层 1"><path class="cls-1" d="M32.48,14.35A31.43,31.43,0,0,0,5.15,61.28L.07,76.53A1.31,1.31,0,0,0,1.3,78.25a1.4,1.4,0,0,0,.34,0l16.67-4.39A31.42,31.42,0,1,0,32.48,14.35ZM18.26,50.86a5.22,5.22,0,1,1,5.21-5.22,5.22,5.22,0,0,1-5.21,5.22Zm14.34,0a5.22,5.22,0,1,1,5.22-5.22,5.22,5.22,0,0,1-5.22,5.22Zm14.35,0a5.22,5.22,0,1,1,5.21-5.22A5.22,5.22,0,0,1,47,50.86ZM78.1,62l-5-15A31.41,31.41,0,0,0,19.4,14.35,34,34,0,0,1,66.51,45.77a33.65,33.65,0,0,1-3.29,14.56l13.39,3.53a1.24,1.24,0,0,0,.33,0h0A1.31,1.31,0,0,0,78.1,62"/></g></g></svg>